<svg version="1.1" xmlns="http://www.w3.org/2000/svg" style="display: block;" viewBox="0 0 2048 1942" width="520" height="493" preserveAspectRatio="none">
<path transform="translate(0,0)" fill="rgb(255,255,255)" d="M 1002.06 0 L 1043.62 0 C 1049.55 2.49937 1096.89 3.31734 1108.21 4.24934 C 1128.87 5.80834 1149.48 8.06812 1169.99 11.0248 C 1241.11 21.3907 1310.93 39.2391 1378.3 64.2729 C 1630.84 157.735 1836.32 347.041 1950.13 591.089 C 2065.77 839.714 2076.9 1124.32 1981.03 1381.22 C 1907.94 1575.72 1777.48 1743.42 1606.93 1862.11 C 1595.3 1870.31 1484.82 1941.22 1476.15 1937.88 C 1473.17 1930.5 1476.17 1910.91 1477.32 1902.52 C 1485.1 1896.51 1497.32 1892.21 1506.4 1887.93 C 1526.98 1878.23 1547.65 1869.74 1568.3 1860.06 C 1565.33 1848.85 1564.94 1841.48 1563.95 1830.08 C 1555.86 1829.54 1540.9 1826.43 1532.45 1824.98 L 1471.58 1814.41 C 1399.63 1801.84 1318.01 1785.97 1246.33 1776.17 C 1243.9 1751.74 1244.78 1720.45 1244.81 1695.41 L 1244.85 1573.56 L 1244.82 1392.18 C 1244.79 1359.81 1243.84 1322.74 1245.07 1290.96 C 1262.19 1279.18 1284.18 1267.84 1302.32 1256.79 C 1304.35 1249.51 1305.16 1240.1 1306.15 1232.43 C 1265.54 1218.73 1223.45 1201.7 1182.67 1187.67 C 1167.91 1182.59 1123.07 1167.23 1111.52 1160.75 C 1107.07 1139.13 1104.52 1099.87 1101.8 1076.43 L 1078.25 858.396 L 1039.13 495.192 C 1036.5 470.037 1033.82 444.783 1030.64 419.694 C 1029.06 407.263 1024.46 394.704 1024.19 382.157 C 1023.32 340.97 1023.96 299.714 1023.73 258.513 C 1023.65 241.947 1023.54 225.206 1024.04 208.663 C 1034.53 194.597 1054.71 181.265 1066.69 167.832 C 1075.81 157.603 1072.38 155.398 1063.21 148.309 C 1049.72 160.243 1036.8 172.818 1024.51 185.99 C 1022.44 162.128 1022.64 136.826 1021.07 112.557 C 1017.65 110.824 1013.27 109.199 1009.65 107.744 C 1005.69 115.482 1004.77 120.46 1004.66 129.08 C 1004.36 152.17 1004.37 175.227 1003.85 198.317 C 997.825 205.121 966.361 230.939 958.469 237.125 C 958.252 247.075 956.568 249.411 966.219 253.961 C 977.722 243.798 989.39 233.754 1000.21 222.873 C 1000.82 255.759 1001.04 288.651 1000.86 321.542 C 1000.86 341.945 1001.28 364.516 1000.47 384.77 C 999.949 398.01 995.079 417.393 993.703 431.997 C 989.988 471.425 986.715 510.879 983.277 550.331 L 946.008 979.502 L 939.779 1051.35 C 938.64 1065.14 937.345 1096.19 933.125 1107.38 C 922.465 1118.03 887.802 1145.07 874.551 1155.9 L 771.547 1240.64 C 755.115 1254.01 735.194 1269.16 720.186 1284.18 C 718.641 1285.72 714.298 1297.82 713.209 1300.76 L 754.593 1323.67 C 756.295 1369.8 754.945 1424.19 754.926 1470.93 L 754.939 1701.22 C 735.024 1715.2 695.427 1737.07 673.64 1749.98 L 545.075 1826.36 C 517.94 1842.43 488.77 1859.04 462.354 1876.01 C 298.801 1764.23 176.655 1625.57 93.0455 1444.52 C -17.9245 1200.96 -28.7825 923.551 62.8107 672.062 C 155.343 418.701 344.292 212.199 588.457 97.5815 C 649.572 68.6269 713.486 45.995 779.203 30.0386 C 819.339 20.3281 860.005 12.9591 900.995 7.96878 C 925.819 5.12635 950.159 3.50554 975.107 2.44322 C 981.037 2.19072 998.091 2.34485 1002.06 0 z"/>
<path transform="translate(0,0)" fill="rgb(255,255,255)" d="M 1081.69 1254.31 C 1083.96 1254.18 1086.23 1254.14 1088.5 1254.18 C 1118.39 1255.06 1151.15 1269.53 1171.86 1291.36 C 1201.68 1322.79 1197.76 1357.15 1197.71 1397.21 L 1197.62 1490.42 L 1197.64 1673.39 C 1197.64 1708.83 1198.32 1746.24 1197.2 1781.45 C 1185.3 1781.06 1154.77 1774.79 1141.27 1772.38 C 1130.11 1771.25 1100.63 1765.45 1089.25 1763.5 C 1075.48 1761.14 1028.65 1754.69 1018.07 1749.9 C 1014.29 1742.55 1015.84 1700.99 1015.88 1690.89 L 1015.93 1579.27 L 1015.85 1401.8 L 1015.83 1346.74 C 1015.83 1323.2 1013.39 1305.84 1028.22 1285.49 C 1043.26 1264.87 1057.12 1258.69 1081.69 1254.31 z"/>
</svg>